<?xml version="1.0" encoding="UTF-8" standalone="no"?>
<svg
   xmlns:dc="http://purl.org/dc/elements/1.1/"
   xmlns:cc="http://creativecommons.org/ns#"
   xmlns:rdf="http://www.w3.org/1999/02/22-rdf-syntax-ns#"
   xmlns:svg="http://www.w3.org/2000/svg"
   xmlns="http://www.w3.org/2000/svg"
   xmlns:xlink="http://www.w3.org/1999/xlink"
   xmlns:sodipodi="http://sodipodi.sourceforge.net/DTD/sodipodi-0.dtd"
   xmlns:inkscape="http://www.inkscape.org/namespaces/inkscape"
   width="630"
   height="120"
   version="1.1"
   id="svg3952"
   sodipodi:docname="sharding_snip1.svg"
   inkscape:version="0.92.2 (5c3e80d, 2017-08-06)">
  <metadata
     id="metadata3958">
    <rdf:RDF>
      <cc:Work
         rdf:about="">
        <dc:format>image/svg+xml</dc:format>
        <dc:type
           rdf:resource="http://purl.org/dc/dcmitype/StillImage" />
        <dc:title />
      </cc:Work>
    </rdf:RDF>
  </metadata>
  <defs
     id="defs3956">
    <defs
       id="defs3948">
      <path
         inkscape:connector-curvature="0"
         id="c"
         d="m 779,-765 c -19,-119 -93,-196 -233,-196 -95,0 -164,32 -207,95 -43,63 -64,170 -64,320 0,144 23,251 68,320 45,69 114,104 205,104 139,0 224,-79 240,-212 l 182,12 C 946,-119 781,22 553,20 230,17 87,-201 87,-542 c 0,-338 145,-557 464,-560 225,-1 380,129 413,323" />
      <path
         inkscape:connector-curvature="0"
         id="d"
         d="m 571,-1102 c 350,0 480,196 482,560 2,357 -151,562 -488,562 -332,0 -479,-218 -479,-562 0,-373 162,-560 485,-560 z m -8,989 c 244,0 301,-164 301,-429 0,-266 -49,-427 -290,-427 -239,0 -299,165 -299,427 0,252 61,429 288,429" />
      <path
         inkscape:connector-curvature="0"
         id="e"
         d="m 663,-1102 c 251,0 343,119 343,381 V 0 H 825 v -686 c 0,-183 -40,-279 -223,-277 -184,2 -280,141 -280,336 V 0 H 142 c -3,-345 6,-754 -6,-1082 h 170 c 5,68 6,94 8,185 h 3 c 76,-134 157,-205 346,-205" />
      <path
         inkscape:connector-curvature="0"
         id="f"
         d="m 336,-268 c 2,98 22,139 114,141 24,0 59,-5 104,-14 V -8 C 495,8 434,16 372,16 228,16 156,-66 156,-229 V -951 H 31 v -131 h 132 l 53,-242 h 120 v 242 h 200 v 131 H 336 v 683" />
      <g
         id="a">
        <use
           height="100%"
           width="100%"
           y="0"
           x="0"
           id="use3926"
           xlink:href="#c"
           transform="scale(0.01302083)" />
        <use
           height="100%"
           width="100%"
           y="0"
           x="0"
           id="use3928"
           xlink:href="#d"
           transform="matrix(0.01302083,0,0,0.01302083,13.333333,0)" />
        <use
           height="100%"
           width="100%"
           y="0"
           x="0"
           id="use3930"
           xlink:href="#e"
           transform="matrix(0.01302083,0,0,0.01302083,28.164062,0)" />
        <use
           height="100%"
           width="100%"
           y="0"
           x="0"
           id="use3932"
           xlink:href="#f"
           transform="matrix(0.01302083,0,0,0.01302083,42.994792,0)" />
      </g>
      <path
         inkscape:connector-curvature="0"
         id="g"
         d="M 0,20 411,-1484 H 569 L 162,20 H 0" />
      <path
         inkscape:connector-curvature="0"
         id="h"
         d="M 797,-207 C 713,-60 620,16 414,20 203,24 88,-98 87,-302 c 0,-112 37,-198 111,-258 74,-60 192,-93 356,-96 l 243,-4 c 10,-201 -43,-307 -232,-305 -154,2 -223,43 -242,172 l -188,-17 c 31,-195 175,-292 434,-292 259,0 410,116 410,364 v 466 c 3,95 12,159 101,161 17,0 37,-2 59,-7 V -6 C 1094,5 1047,10 1000,10 857,8 812,-66 803,-207 Z m -525,-92 c -1,116 66,187 183,184 230,-7 361,-164 342,-419 -124,5 -305,-2 -389,30 -83,32 -136,92 -136,205" />
      <g
         id="b">
        <use
           height="100%"
           width="100%"
           y="0"
           x="0"
           id="use3937"
           xlink:href="#g"
           transform="scale(0.01736111)" />
        <use
           height="100%"
           width="100%"
           y="0"
           x="0"
           id="use3939"
           xlink:href="#h"
           transform="matrix(0.01736111,0,0,0.01736111,9.8784722,0)" />
        <use
           height="100%"
           width="100%"
           y="0"
           x="0"
           id="use3941"
           xlink:href="#c"
           transform="matrix(0.01736111,0,0,0.01736111,29.652778,0)" />
        <use
           height="100%"
           width="100%"
           y="0"
           x="0"
           id="use3943"
           xlink:href="#c"
           transform="matrix(0.01736111,0,0,0.01736111,47.430556,0)" />
        <use
           height="100%"
           width="100%"
           y="0"
           x="0"
           id="use3945"
           xlink:href="#f"
           transform="matrix(0.01736111,0,0,0.01736111,65.208333,0)" />
      </g>
    </defs>
  </defs>
  <sodipodi:namedview
     pagecolor="#ffffff"
     bordercolor="#666666"
     borderopacity="1"
     objecttolerance="10"
     gridtolerance="10"
     guidetolerance="10"
     inkscape:pageopacity="0"
     inkscape:pageshadow="2"
     inkscape:window-width="3840"
     inkscape:window-height="2031"
     id="namedview3954"
     showgrid="false"
     inkscape:zoom="4"
     inkscape:cx="259.51356"
     inkscape:cy="162.22523"
     inkscape:window-x="0"
     inkscape:window-y="55"
     inkscape:window-maximized="1"
     inkscape:current-layer="svg3952" />
  <path
     style="fill:#ffffff;fill-opacity:0;stroke-width:0.45284376"
     inkscape:connector-curvature="0"
     id="path3910"
     d="M 0.95284148,2.5359665 H 629.04715 V 118.46397 H 0.95284148 Z" />
  <path
     style="fill:none;stroke:#000000;stroke-width:0.90568751"
     inkscape:connector-curvature="0"
     id="path3912"
     d="m 10.055001,2.5359665 h 9.10216 m 4.55108,0 h 9.10216 m 4.555608,0 h 9.10216 m 4.555608,0 h 9.10216 m 4.55108,0 h 9.10216 m 4.555608,0 h 9.10216 m 4.55108,0 h 9.111215 m 4.55108,0 h 9.10216 m 4.55108,0 h 9.10216 m 4.55108,0 h 9.10216 m 4.55108,0 h 9.10216 m 4.55561,0 h 9.10216 m 4.55108,0 h 9.10216 m 4.55108,0 h 9.10216 m 4.55108,0 h 9.10216 m 4.55108,0 h 9.10216 m 4.5556,0 h 9.10216 m 4.55108,0 h 9.10216 m 4.54656,0 h 9.10216 m 4.55108,0 h 9.10216 m 4.54655,0 h 9.10216 m 4.5556,0 h 9.10216 m 4.55108,0 h 9.10216 m 4.55108,0 h 9.10216 m 4.55108,0 h 9.10216 m 4.55561,0 h 9.10216 m 4.55561,0 h 9.10216 m 4.55108,0 h 9.10216 m 4.55561,0 h 9.10216 m 4.55108,0 h 9.11121 m 4.55108,0 h 9.10216 m 4.55108,0 h 9.10216 m 4.55108,0 h 9.10216 m 4.55108,0 h 9.10216 m 4.55561,0 h 9.10216 m 4.55108,0 h 9.10216 m 4.55108,0 h 9.10216 m 4.55108,0 h 9.10216 m 4.55108,0 h 9.10216 m 4.55561,0 h 9.10216 m 4.55108,0 h 9.10216 m 4.54655,0 h 9.10216 m 4.55108,0 h 9.10216 m 4.54655,0 h 9.10216 m 4.55561,0 h 9.10216 m 4.55108,0 h 4.54202 v 4.2929589 m 0,4.2929586 v 8.590447 m 0,4.292959 v 8.590446 m 0,4.292959 v 8.585918 m 0,4.302016 v 8.585917 m 0,4.292959 v 8.585918 m 0,4.302016 v 8.58139 m 0,4.292958 v 8.585918 m 0,4.288435 v 8.59044 m 0,4.29296 v 4.28843 h -4.55108 m -4.55108,0 h -9.10216 m -4.55108,0 h -9.10216 m -4.55561,0 h -9.10216 m -4.55561,0 h -9.10215 m -4.55108,0 h -9.10216 m -4.55561,0 h -9.10216 m -4.55108,0 h -9.11122 m -4.55108,0 h -9.10216 m -4.55108,0 h -9.10216 m -4.55108,0 h -9.10216 m -4.55108,0 h -9.10216 m -4.55561,0 h -9.10216 m -4.55108,0 h -9.10216 m -4.55108,0 h -9.10216 m -4.55108,0 h -9.10216 m -4.55107,0 h -9.10216 m -4.55561,0 h -9.10216 m -4.55108,0 h -9.10216 m -4.54655,0 h -9.10216 m -4.55108,0 h -9.10216 m -4.54655,0 h -9.10216 m -4.55561,0 h -9.10216 m -4.55108,0 h -9.10216 m -4.55108,0 h -9.10216 m -4.55108,0 h -9.10216 m -4.55561,0 h -9.0931 m -4.55561,0 h -9.10216 m -4.55108,0 h -9.10216 m -4.55561,0 h -9.10216 m -4.55108,0 h -9.11122 m -4.55108,0 h -9.10215 m -4.55108,0 h -9.10216 m -4.55108,0 h -9.10216 m -4.55108,0 h -9.10216 m -4.55561,0 h -9.10216 m -4.55108,0 h -9.10216 m -4.55108,0 h -9.10216 m -4.55108,0 h -9.10216 m -4.55108,0 h -9.102161 m -4.555608,0 h -9.10216 m -4.55108,0 h -9.10216 m -4.546551,0 h -9.10216 m -4.55108,0 h -9.102159 m -4.546552,0 h -9.10216 m -4.555608,0 h -9.10216 m -4.5510796,0 H 0.95284148 v -4.29296 m 0,-4.29296 v -8.59044 m 0,-4.292962 v -8.590446 m 0,-4.292959 v -8.576861 m 0,-4.302016 v -8.585918 m 0,-4.292958 v -8.585918 m 0,-4.302016 v -8.58139 m 0,-4.292959 v -8.590446 m 0,-4.28843 v -8.590447 m 0,-4.2929586 V 2.5359665 H 5.5039214" />
  <path
     style="fill:#ffffff;stroke:#000000;stroke-width:0.90568751"
     inkscape:connector-curvature="0"
     id="path3914"
     d="m 82.011876,45.103281 c 0,-2.75329 2.227992,-4.981282 4.981282,-4.981282 H 543.00683 c 2.75329,0 4.98129,2.227992 4.98129,4.981282 v 30.340532 c 0,2.753291 -2.228,4.981282 -4.98129,4.981282 H 86.993158 c -2.75329,0 -4.981282,-2.227991 -4.981282,-4.981282 z" />
  <path
     style="fill:#ffffff;fill-opacity:0;stroke:#000000;stroke-width:0.90568751;stroke-opacity:0"
     inkscape:connector-curvature="0"
     id="path3918"
     d="M 5.0284354,2.5359665 H 52.124187 V 32.876499 H 5.0284354 Z" />
  <text
     xml:space="preserve"
     style="font-style:normal;font-variant:normal;font-weight:normal;font-stretch:normal;font-size:14.49100113px;line-height:1.25;font-family:sans-serif;-inkscape-font-specification:'sans-serif, Normal';font-variant-ligatures:normal;font-variant-caps:normal;font-variant-numeric:normal;font-feature-settings:normal;text-align:start;letter-spacing:0px;word-spacing:0px;writing-mode:lr-tb;text-anchor:start;fill:#000000;fill-opacity:1;stroke:none;stroke-width:0.45284379"
     x="6.4593792"
     y="19.109808"
     id="text281"><tspan
       sodipodi:role="line"
       id="tspan279"
       x="6.4593792"
       y="19.109808"
       style="stroke-width:0.45284379">/acct</tspan></text>
  <text
     xml:space="preserve"
     style="font-style:normal;font-variant:normal;font-weight:normal;font-stretch:normal;font-size:14.49100113px;line-height:1.25;font-family:sans-serif;-inkscape-font-specification:'sans-serif, Normal';font-variant-ligatures:normal;font-variant-caps:normal;font-variant-numeric:normal;font-feature-settings:normal;text-align:start;letter-spacing:0px;word-spacing:0px;writing-mode:lr-tb;text-anchor:start;fill:#000000;fill-opacity:1;stroke:none;stroke-width:0.45284379"
     x="298.91342"
     y="65.258369"
     id="text281-8"><tspan
       sodipodi:role="line"
       id="tspan279-9"
       x="298.91342"
       y="65.258369"
       style="stroke-width:0.45284379">cont</tspan></text>
</svg>
