<?xml version="1.0" encoding="UTF-8" standalone="no"?>
<svg
   xmlns:dc="http://purl.org/dc/elements/1.1/"
   xmlns:cc="http://creativecommons.org/ns#"
   xmlns:rdf="http://www.w3.org/1999/02/22-rdf-syntax-ns#"
   xmlns:svg="http://www.w3.org/2000/svg"
   xmlns="http://www.w3.org/2000/svg"
   xmlns:xlink="http://www.w3.org/1999/xlink"
   xmlns:sodipodi="http://sodipodi.sourceforge.net/DTD/sodipodi-0.dtd"
   xmlns:inkscape="http://www.inkscape.org/namespaces/inkscape"
   width="630"
   height="235"
   version="1.1"
   id="svg161"
   sodipodi:docname="sharding_snip5.svg"
   inkscape:version="0.92.2 (5c3e80d, 2017-08-06)">
  <metadata
     id="metadata167">
    <rdf:RDF>
      <cc:Work
         rdf:about="">
        <dc:format>image/svg+xml</dc:format>
        <dc:type
           rdf:resource="http://purl.org/dc/dcmitype/StillImage" />
        <dc:title></dc:title>
      </cc:Work>
    </rdf:RDF>
  </metadata>
  <defs
     id="defs165">
    <defs
       id="defs157">
      <path
         id="f"
         d="M 0,20 411,-1484 H 569 L 162,20 H 0"
         inkscape:connector-curvature="0" />
      <path
         id="g"
         d="M 797,-207 C 713,-60 620,16 414,20 203,24 88,-98 87,-302 c 0,-112 37,-198 111,-258 74,-60 192,-93 356,-96 l 243,-4 c 10,-201 -43,-307 -232,-305 -154,2 -223,43 -242,172 l -188,-17 c 31,-195 175,-292 434,-292 259,0 410,116 410,364 v 466 c 3,95 12,159 101,161 17,0 37,-2 59,-7 V -6 C 1094,5 1047,10 1000,10 857,8 812,-66 803,-207 Z m -525,-92 c -1,116 66,187 183,184 230,-7 361,-164 342,-419 -124,5 -305,-2 -389,30 -83,32 -136,92 -136,205"
         inkscape:connector-curvature="0" />
      <path
         id="h"
         d="m 779,-765 c -19,-119 -93,-196 -233,-196 -95,0 -164,32 -207,95 -43,63 -64,170 -64,320 0,144 23,251 68,320 45,69 114,104 205,104 139,0 224,-79 240,-212 l 182,12 C 946,-119 781,22 553,20 230,17 87,-201 87,-542 c 0,-338 145,-557 464,-560 225,-1 380,129 413,323"
         inkscape:connector-curvature="0" />
      <path
         id="i"
         d="m 336,-268 c 2,98 22,139 114,141 24,0 59,-5 104,-14 V -8 C 495,8 434,16 372,16 228,16 156,-66 156,-229 V -951 H 31 v -131 h 132 l 53,-242 h 120 v 242 h 200 v 131 H 336 v 683"
         inkscape:connector-curvature="0" />
      <g
         id="a">
        <use
           id="use42"
           xlink:href="#f"
           transform="scale(0.01736111)"
           x="0"
           y="0"
           width="100%"
           height="100%" />
        <use
           id="use44"
           xlink:href="#g"
           transform="matrix(0.01736111,0,0,0.01736111,9.8784722,0)"
           x="0"
           y="0"
           width="100%"
           height="100%" />
        <use
           id="use46"
           xlink:href="#h"
           transform="matrix(0.01736111,0,0,0.01736111,29.652778,0)"
           x="0"
           y="0"
           width="100%"
           height="100%" />
        <use
           id="use48"
           xlink:href="#h"
           transform="matrix(0.01736111,0,0,0.01736111,47.430556,0)"
           x="0"
           y="0"
           width="100%"
           height="100%" />
        <use
           id="use50"
           xlink:href="#i"
           transform="matrix(0.01736111,0,0,0.01736111,65.208333,0)"
           x="0"
           y="0"
           width="100%"
           height="100%" />
      </g>
      <path
         id="j"
         d="M 187,0 V -219 H 382 V 0 H 187"
         inkscape:connector-curvature="0" />
      <path
         id="k"
         d="m 513,-963 c -139,1 -238,29 -238,149 0,72 41,100 95,127 55,27 348,94 404,125 101,56 176,118 176,263 C 950,-73 758,21 511,20 254,19 107,-55 57,-254 l 159,-31 c 34,123 133,168 295,168 156,0 264,-34 264,-168 0,-156 -183,-165 -315,-204 -171,-51 -245,-68 -323,-172 -26,-35 -37,-82 -37,-135 0,-220 172,-304 413,-303 232,1 379,74 418,265 l -162,20 C 746,-918 647,-964 513,-963"
         inkscape:connector-curvature="0" />
      <path
         id="l"
         d="m 322,-1484 c -2,195 6,405 -8,587 h 3 c 73,-129 159,-205 346,-205 250,0 342,118 343,381 V 0 H 825 v -686 c 3,-190 -43,-277 -223,-277 -176,-1 -280,140 -280,325 V 0 H 142 v -1484 h 180"
         inkscape:connector-curvature="0" />
      <path
         id="m"
         d="m 318,-861 c 55,-157 83,-241 257,-241 24,0 48,3 73,10 v 165 c -24,-7 -56,-10 -96,-10 -75,0 -132,33 -171,97 -39,64 -59,156 -59,276 V 0 H 142 c -3,-364 6,-725 -6,-1082 h 170 c 5,123 8,196 8,221 h 4"
         inkscape:connector-curvature="0" />
      <path
         id="n"
         d="m 835,0 c -5,-29 -11,-137 -10,-174 h -4 C 759,-45 663,20 484,20 177,20 86,-201 86,-536 c 0,-377 133,-566 398,-566 178,1 273,67 339,188 -4,-187 -1,-380 -2,-570 h 180 v 1261 c 0,113 2,187 6,223 z m -14,-554 c 0,-255 -58,-415 -289,-415 -91,0 -151,37 -196,101 -76,109 -77,543 -1,651 44,63 105,98 195,98 235,0 291,-173 291,-435"
         inkscape:connector-curvature="0" />
      <path
         id="o"
         d="m 87,-548 c 0,-338 159,-553 484,-554 325,-2 484,204 477,599 H 276 c -1,227 88,385 302,388 146,2 246,-65 283,-166 l 158,45 C 954,-65 807,20 578,20 240,20 87,-193 87,-548 Z m 775,-93 c -19,-206 -90,-328 -294,-328 -185,0 -285,140 -290,328 h 584"
         inkscape:connector-curvature="0" />
      <path
         id="p"
         d="M -31,407 V 277 H 1162 V 407 H -31"
         inkscape:connector-curvature="0" />
      <g
         id="b">
        <use
           id="use60"
           xlink:href="#f"
           transform="scale(0.01736111)"
           x="0"
           y="0"
           width="100%"
           height="100%" />
        <use
           id="use62"
           xlink:href="#j"
           transform="matrix(0.01736111,0,0,0.01736111,9.8784722,0)"
           x="0"
           y="0"
           width="100%"
           height="100%" />
        <use
           id="use64"
           xlink:href="#k"
           transform="matrix(0.01736111,0,0,0.01736111,19.756944,0)"
           x="0"
           y="0"
           width="100%"
           height="100%" />
        <use
           id="use66"
           xlink:href="#l"
           transform="matrix(0.01736111,0,0,0.01736111,37.534722,0)"
           x="0"
           y="0"
           width="100%"
           height="100%" />
        <use
           id="use68"
           xlink:href="#g"
           transform="matrix(0.01736111,0,0,0.01736111,57.309028,0)"
           x="0"
           y="0"
           width="100%"
           height="100%" />
        <use
           id="use70"
           xlink:href="#m"
           transform="matrix(0.01736111,0,0,0.01736111,77.083333,0)"
           x="0"
           y="0"
           width="100%"
           height="100%" />
        <use
           id="use72"
           xlink:href="#n"
           transform="matrix(0.01736111,0,0,0.01736111,88.923611,0)"
           x="0"
           y="0"
           width="100%"
           height="100%" />
        <use
           id="use74"
           xlink:href="#o"
           transform="matrix(0.01736111,0,0,0.01736111,108.69792,0)"
           x="0"
           y="0"
           width="100%"
           height="100%" />
        <use
           id="use76"
           xlink:href="#n"
           transform="matrix(0.01736111,0,0,0.01736111,128.47222,0)"
           x="0"
           y="0"
           width="100%"
           height="100%" />
        <use
           id="use78"
           xlink:href="#p"
           transform="matrix(0.01736111,0,0,0.01736111,148.24653,0)"
           x="0"
           y="0"
           width="100%"
           height="100%" />
        <use
           id="use80"
           xlink:href="#g"
           transform="matrix(0.01736111,0,0,0.01736111,168.02083,0)"
           x="0"
           y="0"
           width="100%"
           height="100%" />
        <use
           id="use82"
           xlink:href="#h"
           transform="matrix(0.01736111,0,0,0.01736111,187.79514,0)"
           x="0"
           y="0"
           width="100%"
           height="100%" />
        <use
           id="use84"
           xlink:href="#h"
           transform="matrix(0.01736111,0,0,0.01736111,205.57292,0)"
           x="0"
           y="0"
           width="100%"
           height="100%" />
        <use
           id="use86"
           xlink:href="#i"
           transform="matrix(0.01736111,0,0,0.01736111,223.35069,0)"
           x="0"
           y="0"
           width="100%"
           height="100%" />
      </g>
      <path
         id="q"
         d="m 571,-1102 c 350,0 480,196 482,560 2,357 -151,562 -488,562 -332,0 -479,-218 -479,-562 0,-373 162,-560 485,-560 z m -8,989 c 244,0 301,-164 301,-429 0,-266 -49,-427 -290,-427 -239,0 -299,165 -299,427 0,252 61,429 288,429"
         inkscape:connector-curvature="0" />
      <path
         id="r"
         d="m 663,-1102 c 251,0 343,119 343,381 V 0 H 825 v -686 c 0,-183 -40,-279 -223,-277 -184,2 -280,141 -280,336 V 0 H 142 c -3,-345 6,-754 -6,-1082 h 170 c 5,68 6,94 8,185 h 3 c 76,-134 157,-205 346,-205"
         inkscape:connector-curvature="0" />
      <path
         id="s"
         d="m 156,0 v -153 h 359 v -1084 l -318,227 v -170 l 333,-229 h 166 v 1256 h 343 V 0 H 156"
         inkscape:connector-curvature="0" />
      <path
         id="t"
         d="m 655,-1102 c 307,0 398,221 398,556 0,377 -133,566 -398,566 -180,0 -272,-66 -339,-188 1,22 -7,151 -10,168 H 132 c 4,-36 6,-110 6,-223 v -1261 h 180 c -2,196 4,384 -4,576 h 4 c 62,-129 158,-194 337,-194 z m -337,573 c 0,254 57,416 289,416 91,0 152,-37 197,-101 76,-109 76,-543 0,-651 -44,-63 -105,-98 -195,-98 -236,0 -291,169 -291,434"
         inkscape:connector-curvature="0" />
      <path
         id="u"
         d="m 572,-1430 c 269,0 442,128 442,386 0,144 -72,232 -149,325 -108,130 -487,366 -564,566 h 735 V 0 H 103 v -127 c 119,-285 378,-432 583,-627 76,-72 141,-150 143,-284 1,-156 -100,-244 -257,-244 -156,0 -263,93 -277,238 l -184,-17 c 24,-224 208,-369 461,-369"
         inkscape:connector-curvature="0" />
      <path
         id="v"
         d="m 715,-719 c 191,17 334,134 334,330 C 1049,-115 858,20 571,20 288,20 108,-110 78,-362 l 186,-17 c 24,167 126,250 307,250 177,0 294,-88 291,-266 -3,-174 -149,-246 -344,-244 H 416 v -156 h 98 c 179,2 311,-77 311,-243 0,-157 -98,-244 -264,-244 -159,0 -264,88 -278,233 l -181,-14 c 23,-229 206,-367 461,-367 262,0 447,124 447,373 0,197 -120,298 -295,334 v 4"
         inkscape:connector-curvature="0" />
      <path
         id="w"
         d="M 1036,-1263 C 892,-1043 790,-871 731,-746 626,-522 556,-302 553,0 H 365 c 0,-180 39,-369 115,-568 76,-199 203,-429 382,-688 H 105 v -153 h 931 v 146"
         inkscape:connector-curvature="0" />
      <g
         id="c">
        <use
           id="use96"
           xlink:href="#h"
           transform="scale(0.01302083)"
           x="0"
           y="0"
           width="100%"
           height="100%" />
        <use
           id="use98"
           xlink:href="#q"
           transform="matrix(0.01302083,0,0,0.01302083,13.333333,0)"
           x="0"
           y="0"
           width="100%"
           height="100%" />
        <use
           id="use100"
           xlink:href="#r"
           transform="matrix(0.01302083,0,0,0.01302083,28.164062,0)"
           x="0"
           y="0"
           width="100%"
           height="100%" />
        <use
           id="use102"
           xlink:href="#i"
           transform="matrix(0.01302083,0,0,0.01302083,42.994792,0)"
           x="0"
           y="0"
           width="100%"
           height="100%" />
        <use
           id="use104"
           xlink:href="#p"
           transform="matrix(0.01302083,0,0,0.01302083,50.403646,0)"
           x="0"
           y="0"
           width="100%"
           height="100%" />
        <use
           id="use106"
           xlink:href="#s"
           transform="matrix(0.01302083,0,0,0.01302083,65.234375,0)"
           x="0"
           y="0"
           width="100%"
           height="100%" />
        <use
           id="use108"
           xlink:href="#o"
           transform="matrix(0.01302083,0,0,0.01302083,80.065104,0)"
           x="0"
           y="0"
           width="100%"
           height="100%" />
        <use
           id="use110"
           xlink:href="#o"
           transform="matrix(0.01302083,0,0,0.01302083,94.895833,0)"
           x="0"
           y="0"
           width="100%"
           height="100%" />
        <use
           id="use112"
           xlink:href="#t"
           transform="matrix(0.01302083,0,0,0.01302083,109.72656,0)"
           x="0"
           y="0"
           width="100%"
           height="100%" />
        <use
           id="use114"
           xlink:href="#u"
           transform="matrix(0.01302083,0,0,0.01302083,124.55729,0)"
           x="0"
           y="0"
           width="100%"
           height="100%" />
        <use
           id="use116"
           xlink:href="#v"
           transform="matrix(0.01302083,0,0,0.01302083,139.38802,0)"
           x="0"
           y="0"
           width="100%"
           height="100%" />
        <use
           id="use118"
           xlink:href="#w"
           transform="matrix(0.01302083,0,0,0.01302083,154.21875,0)"
           x="0"
           y="0"
           width="100%"
           height="100%" />
      </g>
      <g
         id="d">
        <use
           id="use121"
           xlink:href="#h"
           transform="scale(0.01302083)"
           x="0"
           y="0"
           width="100%"
           height="100%" />
        <use
           id="use123"
           xlink:href="#q"
           transform="matrix(0.01302083,0,0,0.01302083,13.333333,0)"
           x="0"
           y="0"
           width="100%"
           height="100%" />
        <use
           id="use125"
           xlink:href="#r"
           transform="matrix(0.01302083,0,0,0.01302083,28.164062,0)"
           x="0"
           y="0"
           width="100%"
           height="100%" />
        <use
           id="use127"
           xlink:href="#i"
           transform="matrix(0.01302083,0,0,0.01302083,42.994792,0)"
           x="0"
           y="0"
           width="100%"
           height="100%" />
      </g>
      <path
         id="x"
         d="m 765,-739 c 171,25 285,155 285,346 C 1049,-119 859,20 570,20 286,20 89,-117 89,-391 89,-574 212,-714 370,-737 v -4 c -143,-30 -248,-160 -248,-328 1,-229 198,-361 444,-361 254,0 448,125 449,363 1,166 -104,300 -250,324 z m -197,-70 c 171,-2 261,-74 260,-248 0,-159 -87,-239 -262,-239 -165,0 -260,77 -260,239 0,163 99,249 262,248 z m 4,694 c 200,0 291,-92 291,-295 1,-179 -116,-264 -297,-264 -175,0 -292,98 -291,268 0,194 99,291 297,291"
         inkscape:connector-curvature="0" />
      <path
         id="y"
         d="m 492,-1341 c -103,3 -130,49 -131,162 v 97 h 211 v 131 H 361 V 0 H 181 V -951 H 29 v -131 h 152 v -122 c 0,-192 78,-276 264,-278 50,0 92,4 127,12 v 137 c -30,-5 -57,-8 -80,-8"
         inkscape:connector-curvature="0" />
      <g
         id="e">
        <use
           id="use132"
           xlink:href="#h"
           transform="scale(0.01302083)"
           x="0"
           y="0"
           width="100%"
           height="100%" />
        <use
           id="use134"
           xlink:href="#q"
           transform="matrix(0.01302083,0,0,0.01302083,13.333333,0)"
           x="0"
           y="0"
           width="100%"
           height="100%" />
        <use
           id="use136"
           xlink:href="#r"
           transform="matrix(0.01302083,0,0,0.01302083,28.164062,0)"
           x="0"
           y="0"
           width="100%"
           height="100%" />
        <use
           id="use138"
           xlink:href="#i"
           transform="matrix(0.01302083,0,0,0.01302083,42.994792,0)"
           x="0"
           y="0"
           width="100%"
           height="100%" />
        <use
           id="use140"
           xlink:href="#p"
           transform="matrix(0.01302083,0,0,0.01302083,50.403646,0)"
           x="0"
           y="0"
           width="100%"
           height="100%" />
        <use
           id="use142"
           xlink:href="#n"
           transform="matrix(0.01302083,0,0,0.01302083,65.234375,0)"
           x="0"
           y="0"
           width="100%"
           height="100%" />
        <use
           id="use144"
           xlink:href="#n"
           transform="matrix(0.01302083,0,0,0.01302083,80.065104,0)"
           x="0"
           y="0"
           width="100%"
           height="100%" />
        <use
           id="use146"
           xlink:href="#x"
           transform="matrix(0.01302083,0,0,0.01302083,94.895833,0)"
           x="0"
           y="0"
           width="100%"
           height="100%" />
        <use
           id="use148"
           xlink:href="#v"
           transform="matrix(0.01302083,0,0,0.01302083,109.72656,0)"
           x="0"
           y="0"
           width="100%"
           height="100%" />
        <use
           id="use150"
           xlink:href="#u"
           transform="matrix(0.01302083,0,0,0.01302083,124.55729,0)"
           x="0"
           y="0"
           width="100%"
           height="100%" />
        <use
           id="use152"
           xlink:href="#x"
           transform="matrix(0.01302083,0,0,0.01302083,139.38802,0)"
           x="0"
           y="0"
           width="100%"
           height="100%" />
        <use
           id="use154"
           xlink:href="#y"
           transform="matrix(0.01302083,0,0,0.01302083,154.21875,0)"
           x="0"
           y="0"
           width="100%"
           height="100%" />
      </g>
    </defs>
  </defs>
  <sodipodi:namedview
     pagecolor="#ffffff"
     bordercolor="#666666"
     borderopacity="1"
     objecttolerance="10"
     gridtolerance="10"
     guidetolerance="10"
     inkscape:pageopacity="0"
     inkscape:pageshadow="2"
     inkscape:window-width="3840"
     inkscape:window-height="2031"
     id="namedview163"
     showgrid="false"
     inkscape:zoom="2.8284271"
     inkscape:cx="431.66392"
     inkscape:cy="182.41243"
     inkscape:window-x="0"
     inkscape:window-y="55"
     inkscape:window-maximized="1"
     inkscape:current-layer="svg161" />
  <g
     id="g264">
    <path
       d="m 0.80639,2.9507 h 628.09436 v 115.928 H 0.80639 Z"
       id="path2"
       inkscape:connector-curvature="0"
       style="fill:#ffffff;fill-opacity:0;stroke-width:0.45284379" />
    <path
       d="m 9.90855,2.9507 h 9.10216 m 4.55108,0 h 9.10216 m 4.55561,0 h 9.10216 m 4.55561,0 h 9.10216 m 4.55108,0 h 9.10216 m 4.55561,0 h 9.10216 m 4.55108,0 h 9.11121 m 4.55108,0 h 9.10216 m 4.55108,0 h 9.10216 m 4.55108,0 h 9.10216 m 4.55108,0 h 9.10216 m 4.55561,0 h 9.10216 m 4.55108,0 h 9.10216 m 4.55108,0 H 196.53 m 4.55108,0 h 9.10216 m 4.55108,0 h 9.10216 m 4.55561,0 h 9.10216 m 4.55108,0 h 9.10216 m 4.54655,0 h 9.10216 m 4.55108,0 h 9.10216 m 4.54655,0 h 9.10216 m 4.55561,0 h 9.10216 m 4.55108,0 h 9.10216 m 4.55108,0 h 9.10216 m 4.55108,0 h 9.10216 m 4.55561,0 h 9.0931 m 4.55561,0 h 9.10216 m 4.55108,0 h 9.10216 m 4.55561,0 h 9.10216 m 4.55108,0 h 9.11121 m 4.55108,0 h 9.10216 m 4.55108,0 h 9.10216 m 4.55105,0 h 9.1022 m 4.5511,0 h 9.1021 m 4.5556,0 h 9.1022 m 4.5511,0 h 9.1021 m 4.5511,0 h 9.1022 m 4.5511,0 h 9.1021 m 4.5511,0 h 9.1022 m 4.5556,0 h 9.1021 m 4.5511,0 h 9.1022 m 4.5465,0 h 9.1022 m 4.5511,0 h 9.1021 m 4.5466,0 h 9.1021 m 4.5556,0 h 9.1022 m 4.5511,0 h 4.5511 v 4.293 m 0,4.2929 v 8.5905 m 0,4.2929 v 8.5905 m 0,4.2929 v 8.5859 m 0,4.3021 v 8.5859 m 0,4.2929 v 8.5859 m 0,4.3021 v 8.5814 m 0,4.2929 v 8.5859 m 0,4.2885 v 8.5904 m 0,4.293 v 4.2884 h -4.5511 m -4.5511,0 h -9.1022 m -4.551,0 h -9.1022 m -4.5556,0 h -9.1022 m -4.5556,0 h -9.1021 m -4.5511,0 h -9.1022 m -4.5556,0 h -9.1021 m -4.5511,0 h -9.1112 m -4.5511,0 h -9.1022 m -4.5511,0 h -9.1021 m -4.5511,0 h -9.1022 m -4.551,0 h -9.1022 m -4.5556,0 h -9.1022 m -4.5511,0 h -9.1021 m -4.55109,0 h -9.10216 m -4.55108,0 h -9.10216 m -4.55108,0 h -9.10216 m -4.55561,0 h -9.10216 m -4.55108,0 h -9.10216 m -4.54655,0 h -9.10216 m -4.54655,0 h -9.10216 m -4.54655,0 h -9.10216 m -4.55561,0 h -9.10216 m -4.55108,0 h -9.10216 m -4.55108,0 h -9.10216 m -4.55108,0 h -9.10216 m -4.55561,0 h -9.09763 m -4.55561,0 h -9.10216 m -4.55108,0 h -9.10216 m -4.55561,0 h -9.10216 m -4.55108,0 h -9.11121 m -4.55108,0 h -9.10216 m -4.55108,0 h -9.10216 m -4.55108,0 h -9.10216 m -4.55108,0 h -9.10216 m -4.55561,0 h -9.10216 m -4.55108,0 h -9.10216 m -4.55108,0 h -9.10216 m -4.55108,0 h -9.10216 m -4.55108,0 h -9.10216 m -4.55561,0 h -9.10216 m -4.55108,0 h -9.10216 m -4.54655,0 h -9.10216 m -4.55108,0 h -9.10216 m -4.54655,0 h -9.10216 m -4.55561,0 H 9.90855 m -4.55108,0 H 0.80639 v -4.293 m 0,-4.2929 v -8.5905 m 0,-4.2929 v -8.5905 m 0,-4.2929 v -8.5769 m 0,-4.302 v -8.5859 m 0,-4.293 v -8.5859 m 0,-4.302 v -8.5814 m 0,-4.293 v -8.5904 m 0,-4.2884 v -8.5905 m 0,-4.2929 v -4.293 h 4.55108"
       id="path4"
       inkscape:connector-curvature="0"
       style="fill:none;stroke:#000000;stroke-width:0.90568757" />
    <path
       d="M 4.88199,2.9507 H 51.97774 V 33.2912 H 4.88199 Z"
       id="path6"
       inkscape:connector-curvature="0"
       style="fill:#ffffff;fill-opacity:0;stroke:#000000;stroke-width:0.90568757;stroke-opacity:0" />
    <path
       d="m 0.80639,118.8787 h 628.09436 v 115.928 H 0.80639 Z"
       id="path10"
       inkscape:connector-curvature="0"
       style="fill:#d2fff2;stroke-width:0.45284379" />
    <path
       d="m 9.90855,118.8787 h 9.10216 m 4.55108,0 h 9.10216 m 4.55561,0 h 9.10216 m 4.55561,0 h 9.10216 m 4.55108,0 h 9.10216 m 4.55561,0 h 9.10216 m 4.55108,0 h 9.11121 m 4.55108,0 h 9.10216 m 4.55108,0 h 9.10216 m 4.55108,0 h 9.10216 m 4.55108,0 h 9.10216 m 4.55561,0 h 9.10216 m 4.55108,0 h 9.10216 m 4.55108,0 H 196.53 m 4.55108,0 h 9.10216 m 4.55108,0 h 9.10216 m 4.55561,0 h 9.10216 m 4.55108,0 h 9.10216 m 4.54655,0 h 9.10216 m 4.55108,0 h 9.10216 m 4.54655,0 h 9.10216 m 4.55561,0 h 9.10216 m 4.55108,0 h 9.10216 m 4.55108,0 h 9.10216 m 4.55108,0 h 9.10216 m 4.55561,0 h 9.0931 m 4.55561,0 h 9.10216 m 4.55108,0 h 9.10216 m 4.55561,0 h 9.10216 m 4.55108,0 h 9.11121 m 4.55108,0 h 9.10216 m 4.55108,0 h 9.10216 m 4.55105,0 h 9.1022 m 4.5511,0 h 9.1021 m 4.5556,0 h 9.1022 m 4.5511,0 h 9.1021 m 4.5511,0 h 9.1022 m 4.5511,0 h 9.1021 m 4.5511,0 h 9.1022 m 4.5556,0 h 9.1021 m 4.5511,0 h 9.1022 m 4.5465,0 h 9.1022 m 4.5511,0 h 9.1021 m 4.5466,0 h 9.1021 m 4.5556,0 h 9.1022 m 4.5511,0 h 4.5511 v 4.293 m 0,4.2929 v 8.5905 m 0,4.2929 v 8.5905 m 0,4.2929 v 8.5859 m 0,4.3021 v 8.5859 m 0,4.2929 v 8.586 m 0,4.302 v 8.5814 m 0,4.2929 v 8.5859 m 0,4.2885 v 8.5904 m 0,4.293 v 4.2884 h -4.5511 m -4.5511,0 h -9.1022 m -4.551,0 h -9.1022 m -4.5556,0 h -9.1022 m -4.5556,0 h -9.1021 m -4.5511,0 h -9.1022 m -4.5556,0 h -9.1021 m -4.5511,0 h -9.1112 m -4.5511,0 h -9.1022 m -4.5511,0 h -9.1021 m -4.5511,0 h -9.1022 m -4.551,0 h -9.1022 m -4.5556,0 h -9.1022 m -4.5511,0 h -9.1021 m -4.55109,0 h -9.10216 m -4.55108,0 h -9.10216 m -4.55108,0 h -9.10216 m -4.55561,0 h -9.10216 m -4.55108,0 h -9.10216 m -4.54655,0 h -9.10216 m -4.54655,0 h -9.10216 m -4.54655,0 h -9.10216 m -4.55561,0 h -9.10216 m -4.55108,0 h -9.10216 m -4.55108,0 h -9.10216 m -4.55108,0 h -9.10216 m -4.55561,0 h -9.09763 m -4.55561,0 h -9.10216 m -4.55108,0 h -9.10216 m -4.55561,0 h -9.10216 m -4.55108,0 h -9.11121 m -4.55108,0 h -9.10216 m -4.55108,0 h -9.10216 m -4.55108,0 h -9.10216 m -4.55108,0 h -9.10216 m -4.55561,0 h -9.10216 m -4.55108,0 h -9.10216 m -4.55108,0 h -9.10216 m -4.55108,0 h -9.10216 m -4.55108,0 h -9.10216 m -4.55561,0 h -9.10216 m -4.55108,0 h -9.10216 m -4.54655,0 h -9.10216 m -4.55108,0 h -9.10216 m -4.54655,0 h -9.10216 m -4.55561,0 H 9.90855 m -4.55108,0 H 0.80639 v -4.293 m 0,-4.2929 v -8.5905 m 0,-4.2929 v -8.5905 m 0,-4.2929 v -8.5769 m 0,-4.302 v -8.5859 m 0,-4.293 v -8.5859 m 0,-4.302 v -8.5814 m 0,-4.293 v -8.5904 m 0,-4.2884 v -8.5905 m 0,-4.2929 v -4.293 h 4.55108"
       id="path12"
       inkscape:connector-curvature="0"
       style="fill:none;stroke:#000000;stroke-width:0.90568757" />
    <path
       d="m 4.88199,118.8787 h 117.73938 v 30.3405 H 4.88199 Z"
       id="path14"
       inkscape:connector-curvature="0"
       style="fill:#ffffff;fill-opacity:0;stroke:#000000;stroke-width:0.90568757;stroke-opacity:0" />
    <path
       d="m 43.49452,161.537 c 0,-2.7368 3.59697,-4.9515 8.042,-4.9515 h 159.37776 c 4.44503,0 8.042,2.2147 8.042,4.9515 v 30.1586 c 0,2.7368 -3.59697,4.9514 -8.042,4.9514 H 51.53652 c -4.44503,0 -8.042,-2.2146 -8.042,-4.9514 z"
       id="path18"
       inkscape:connector-curvature="0"
       style="fill:#ffffff;stroke:#000000;stroke-width:1.1473186" />
    <path
       d="M 154.20269,158.1403 380.23061,81.7455"
       id="path22"
       inkscape:connector-curvature="0"
       style="fill:none;stroke:#000000;stroke-width:0.90568757" />
    <path
       style="stroke-width:0.45284379"
       d="m 160.45647,151.574 -5.41149,6.2764 8.11496,1.7208 -0.18113,0.8786 -9.61841,-2.0288 6.40774,-7.4447 z m 221.20965,-69.8285 -1.2906,0.4302 -0.29435,-0.8604 0.0725,-0.023 h 1.35853 z"
       id="path24"
       inkscape:connector-curvature="0" />
    <path
       d="m 321.87263,45.9708 c 0,-2.7532 2.22799,-4.9812 4.98128,-4.9812 h 228.68614 c 2.7533,0 4.9812,2.228 4.9812,4.9812 v 30.3406 c 0,2.7533 -2.2279,4.9813 -4.9812,4.9813 H 326.85391 c -2.75329,0 -4.98128,-2.228 -4.98128,-4.9813 z"
       id="path26"
       inkscape:connector-curvature="0"
       style="fill:#ffffff;stroke:#000000;stroke-width:0.90568757" />
    <path
       d="m 239.12085,161.5353 c 0,-2.7371 3.5692,-4.9519 7.97993,-4.9519 H 405.2485 c 4.41075,0 7.97997,2.2148 7.97997,4.9519 v 30.1619 c 0,2.7371 -3.56922,4.952 -7.97997,4.952 H 247.10078 c -4.41073,0 -7.97993,-2.2149 -7.97993,-4.952 z"
       id="path30"
       inkscape:connector-curvature="0"
       style="fill:#ffffff;stroke:#000000;stroke-width:1.14294505" />
    <path
       d="M 273.62212,155.5772 404.62983,81.7455"
       id="path34"
       inkscape:connector-curvature="0"
       style="fill:none;stroke:#000000;stroke-width:0.90568757" />
    <path
       style="stroke-width:0.45284379"
       d="m 278.54454,147.9513 -4.14805,7.1866 8.28704,0.1721 -0.0136,0.9057 -9.82671,-0.2038 4.91336,-8.5135 z m 127.49363,-66.4775 -1.17739,0.6657 -0.45285,-0.788 0.10869,-0.059 h 1.42193 z"
       id="path36"
       inkscape:connector-curvature="0" />
    <text
       id="text277"
       y="135.63394"
       x="8.0519142"
       style="font-style:normal;font-variant:normal;font-weight:normal;font-stretch:normal;font-size:14.49100113px;line-height:1.25;font-family:sans-serif;-inkscape-font-specification:'sans-serif, Normal';font-variant-ligatures:normal;font-variant-caps:normal;font-variant-numeric:normal;font-feature-settings:normal;text-align:start;letter-spacing:0px;word-spacing:0px;writing-mode:lr-tb;text-anchor:start;fill:#000000;fill-opacity:1;stroke:none;stroke-width:0.45284379"
       xml:space="preserve"><tspan
         style="stroke-width:0.45284379"
         y="135.63394"
         x="8.0519142"
         id="tspan275"
         sodipodi:role="line">/.shards_acct</tspan></text>
    <text
       id="text281"
       y="20.61161"
       x="8.9575539"
       style="font-style:normal;font-variant:normal;font-weight:normal;font-stretch:normal;font-size:14.49100113px;line-height:1.25;font-family:sans-serif;-inkscape-font-specification:'sans-serif, Normal';font-variant-ligatures:normal;font-variant-caps:normal;font-variant-numeric:normal;font-feature-settings:normal;text-align:start;letter-spacing:0px;word-spacing:0px;writing-mode:lr-tb;text-anchor:start;fill:#000000;fill-opacity:1;stroke:none;stroke-width:0.45284379"
       xml:space="preserve"><tspan
         style="stroke-width:0.45284379"
         y="20.61161"
         x="8.9575539"
         id="tspan279"
         sodipodi:role="line">/acct</tspan></text>
    <text
       id="text101"
       y="182.27689"
       x="61.487461"
       style="font-style:normal;font-variant:normal;font-weight:normal;font-stretch:normal;font-size:13.2834177px;line-height:1.25;font-family:sans-serif;-inkscape-font-specification:'sans-serif, Normal';font-variant-ligatures:normal;font-variant-caps:normal;font-variant-numeric:normal;font-feature-settings:normal;text-align:start;letter-spacing:0px;word-spacing:0px;writing-mode:lr-tb;text-anchor:start;fill:#000000;fill-opacity:1;stroke:none;stroke-width:0.45284379"
       xml:space="preserve"><tspan
         style="stroke-width:0.45284379"
         y="182.27689"
         x="61.487461"
         id="tspan99"
         sodipodi:role="line">cont-568d8e-&lt;ts&gt;-0</tspan></text>
    <text
       id="text101-7"
       y="183.15335"
       x="260.96158"
       style="font-style:normal;font-variant:normal;font-weight:normal;font-stretch:normal;font-size:13.2834177px;line-height:1.25;font-family:sans-serif;-inkscape-font-specification:'sans-serif, Normal';font-variant-ligatures:normal;font-variant-caps:normal;font-variant-numeric:normal;font-feature-settings:normal;text-align:start;letter-spacing:0px;word-spacing:0px;writing-mode:lr-tb;text-anchor:start;fill:#000000;fill-opacity:1;stroke:none;stroke-width:0.45284379"
       xml:space="preserve"><tspan
         style="stroke-width:0.45284379"
         y="183.15335"
         x="260.96158"
         id="tspan99-8"
         sodipodi:role="line">cont-750ed3-&lt;ts&gt;-1</tspan></text>
    <text
       id="text101-6"
       y="65.650284"
       x="427.37085"
       style="font-style:normal;font-variant:normal;font-weight:normal;font-stretch:normal;font-size:13.2834177px;line-height:1.25;font-family:sans-serif;-inkscape-font-specification:'sans-serif, Normal';font-variant-ligatures:normal;font-variant-caps:normal;font-variant-numeric:normal;font-feature-settings:normal;text-align:start;letter-spacing:0px;word-spacing:0px;writing-mode:lr-tb;text-anchor:start;fill:#000000;fill-opacity:1;stroke:none;stroke-width:0.45284379"
       xml:space="preserve"><tspan
         style="stroke-width:0.45284379"
         y="65.650284"
         x="427.37085"
         id="tspan99-88"
         sodipodi:role="line">cont</tspan></text>
  </g>
</svg>
