<?xml version="1.0" encoding="UTF-8" standalone="no"?>
<svg
   xmlns:dc="http://purl.org/dc/elements/1.1/"
   xmlns:cc="http://creativecommons.org/ns#"
   xmlns:rdf="http://www.w3.org/1999/02/22-rdf-syntax-ns#"
   xmlns:svg="http://www.w3.org/2000/svg"
   xmlns="http://www.w3.org/2000/svg"
   xmlns:xlink="http://www.w3.org/1999/xlink"
   xmlns:sodipodi="http://sodipodi.sourceforge.net/DTD/sodipodi-0.dtd"
   xmlns:inkscape="http://www.inkscape.org/namespaces/inkscape"
   width="630.00006"
   height="120"
   version="1.1"
   id="svg54"
   sodipodi:docname="sharding_snip2.svg"
   inkscape:version="0.92.2 (5c3e80d, 2017-08-06)">
  <metadata
     id="metadata60">
    <rdf:RDF>
      <cc:Work
         rdf:about="">
        <dc:format>image/svg+xml</dc:format>
        <dc:type
           rdf:resource="http://purl.org/dc/dcmitype/StillImage" />
        <dc:title />
      </cc:Work>
    </rdf:RDF>
  </metadata>
  <defs
     id="defs58">
    <defs
       id="defs50">
      <path
         id="d"
         d="m 779,-765 c -19,-119 -93,-196 -233,-196 -95,0 -164,32 -207,95 -43,63 -64,170 -64,320 0,144 23,251 68,320 45,69 114,104 205,104 139,0 224,-79 240,-212 l 182,12 C 946,-119 781,22 553,20 230,17 87,-201 87,-542 c 0,-338 145,-557 464,-560 225,-1 380,129 413,323"
         inkscape:connector-curvature="0" />
      <path
         id="e"
         d="m 571,-1102 c 350,0 480,196 482,560 2,357 -151,562 -488,562 -332,0 -479,-218 -479,-562 0,-373 162,-560 485,-560 z m -8,989 c 244,0 301,-164 301,-429 0,-266 -49,-427 -290,-427 -239,0 -299,165 -299,427 0,252 61,429 288,429"
         inkscape:connector-curvature="0" />
      <path
         id="f"
         d="m 663,-1102 c 251,0 343,119 343,381 V 0 H 825 v -686 c 0,-183 -40,-279 -223,-277 -184,2 -280,141 -280,336 V 0 H 142 c -3,-345 6,-754 -6,-1082 h 170 c 5,68 6,94 8,185 h 3 c 76,-134 157,-205 346,-205"
         inkscape:connector-curvature="0" />
      <path
         id="g"
         d="m 336,-268 c 2,98 22,139 114,141 24,0 59,-5 104,-14 V -8 C 495,8 434,16 372,16 228,16 156,-66 156,-229 V -951 H 31 v -131 h 132 l 53,-242 h 120 v 242 h 200 v 131 H 336 v 683"
         inkscape:connector-curvature="0" />
      <g
         id="a">
        <use
           id="use26"
           xlink:href="#d"
           transform="scale(0.01302083)"
           x="0"
           y="0"
           width="100%"
           height="100%" />
        <use
           id="use28"
           xlink:href="#e"
           transform="matrix(0.01302083,0,0,0.01302083,13.333333,0)"
           x="0"
           y="0"
           width="100%"
           height="100%" />
        <use
           id="use30"
           xlink:href="#f"
           transform="matrix(0.01302083,0,0,0.01302083,28.164062,0)"
           x="0"
           y="0"
           width="100%"
           height="100%" />
        <use
           id="use32"
           xlink:href="#g"
           transform="matrix(0.01302083,0,0,0.01302083,42.994792,0)"
           x="0"
           y="0"
           width="100%"
           height="100%" />
      </g>
      <path
         id="h"
         d="M 0,20 411,-1484 H 569 L 162,20 H 0"
         inkscape:connector-curvature="0" />
      <path
         id="i"
         d="M 797,-207 C 713,-60 620,16 414,20 203,24 88,-98 87,-302 c 0,-112 37,-198 111,-258 74,-60 192,-93 356,-96 l 243,-4 c 10,-201 -43,-307 -232,-305 -154,2 -223,43 -242,172 l -188,-17 c 31,-195 175,-292 434,-292 259,0 410,116 410,364 v 466 c 3,95 12,159 101,161 17,0 37,-2 59,-7 V -6 C 1094,5 1047,10 1000,10 857,8 812,-66 803,-207 Z m -525,-92 c -1,116 66,187 183,184 230,-7 361,-164 342,-419 -124,5 -305,-2 -389,30 -83,32 -136,92 -136,205"
         inkscape:connector-curvature="0" />
      <g
         id="b">
        <use
           id="use37"
           xlink:href="#h"
           transform="scale(0.01736111)"
           x="0"
           y="0"
           width="100%"
           height="100%" />
        <use
           id="use39"
           xlink:href="#i"
           transform="matrix(0.01736111,0,0,0.01736111,9.8784722,0)"
           x="0"
           y="0"
           width="100%"
           height="100%" />
        <use
           id="use41"
           xlink:href="#d"
           transform="matrix(0.01736111,0,0,0.01736111,29.652778,0)"
           x="0"
           y="0"
           width="100%"
           height="100%" />
        <use
           id="use43"
           xlink:href="#d"
           transform="matrix(0.01736111,0,0,0.01736111,47.430556,0)"
           x="0"
           y="0"
           width="100%"
           height="100%" />
        <use
           id="use45"
           xlink:href="#g"
           transform="matrix(0.01736111,0,0,0.01736111,65.208333,0)"
           x="0"
           y="0"
           width="100%"
           height="100%" />
      </g>
      <path
         id="j"
         d="m 492,-1341 c -103,3 -130,49 -131,162 v 97 h 211 v 131 H 361 V 0 H 181 V -951 H 29 v -131 h 152 v -122 c 0,-192 78,-276 264,-278 50,0 92,4 127,12 v 137 c -30,-5 -57,-8 -80,-8"
         inkscape:connector-curvature="0"
         style="fill:#b1001c" />
      <use
         id="c"
         xlink:href="#j"
         transform="scale(0.01736111)"
         x="0"
         y="0"
         width="100%"
         height="100%" />
    </defs>
  </defs>
  <sodipodi:namedview
     pagecolor="#ffffff"
     bordercolor="#666666"
     borderopacity="1"
     objecttolerance="10"
     gridtolerance="10"
     guidetolerance="10"
     inkscape:pageopacity="0"
     inkscape:pageshadow="2"
     inkscape:window-width="3840"
     inkscape:window-height="2031"
     id="namedview56"
     showgrid="false"
     inkscape:zoom="1.8847584"
     inkscape:cx="-83.692254"
     inkscape:cy="345.83434"
     inkscape:window-x="0"
     inkscape:window-y="55"
     inkscape:window-maximized="1"
     inkscape:current-layer="svg54"
     inkscape:pagecheckerboard="true"
     fit-margin-top="0"
     fit-margin-left="0"
     fit-margin-right="0"
     fit-margin-bottom="0" />
  <path
     style="fill:#ffffff;fill-opacity:0;stroke-width:0.45284379"
     inkscape:connector-curvature="0"
     id="path2"
     d="M 1.4528438,1.9 H 629.5472 V 117.8 H 1.4528438 Z" />
  <path
     style="fill:none;stroke:#000000;stroke-width:0.90568757"
     inkscape:connector-curvature="0"
     id="path4"
     d="m 10.555004,1.9 h 9.10216 m 4.55108,0 h 9.10216 m 4.55561,0 h 9.10216 m 4.55561,0 h 9.10216 m 4.55108,0 h 9.10216 m 4.55561,0 h 9.10216 m 4.55108,0 h 9.111206 m 4.55108,0 h 9.10216 m 4.55108,0 h 9.10216 m 4.55108,0 h 9.10216 m 4.55108,0 h 9.10216 m 4.55561,0 h 9.10216 m 4.55108,0 h 9.10216 m 4.55108,0 h 9.10216 m 4.55108,0 h 9.10216 m 4.55108,0 h 9.10216 m 4.55561,0 h 9.10216 m 4.55108,0 h 9.10216 m 4.54655,0 h 9.10216 m 4.55108,0 h 9.10216 m 4.54655,0 h 9.10216 m 4.55561,0 h 9.10216 m 4.55108,0 h 9.10216 m 4.55108,0 h 9.10216 m 4.55108,0 h 9.10216 m 4.55561,0 h 9.10216 m 4.5556,0 h 9.10216 m 4.55108,0 h 9.10216 m 4.55561,0 h 9.10213 m 4.5511,0 h 9.1112 m 4.5511,0 h 9.1022 m 4.551,0 h 9.1022 m 4.5511,0 h 9.1021 m 4.5511,0 h 9.1022 m 4.5556,0 h 9.1022 m 4.551,0 h 9.1022 m 4.5511,0 h 9.1021 m 4.5511,0 h 9.1022 m 4.5511,0 h 9.1021 m 4.5556,0 h 9.1022 m 4.5511,0 h 9.1021 m 4.5466,0 h 9.1021 m 4.5511,0 h 9.1022 m 4.5465,0 h 9.1022 m 4.5556,0 h 9.1022 m 4.551,0 h 4.5421 v 4.3 m 0,4.2 V 19 m 0,4.3 v 8.6 m 0,4.3 v 8.6 m 0,4.3 v 8.6 m 0,4.3 v 8.6 m 0,4.3 v 8.6 m 0,4.2 v 8.6 m 0,4.3 v 8.6 m 0,4.3 v 4.3 h -4.5511 m -4.5511,0 h -9.1022 m -4.551,0 h -9.1022 m -4.5556,0 h -9.1022 m -4.5556,0 h -9.1021 m -4.5511,0 h -9.1022 m -4.5556,0 h -9.1021 m -4.5511,0 h -9.1112 m -4.5511,0 h -9.1022 m -4.5511,0 h -9.1021 m -4.5511,0 h -9.1022 m -4.551,0 h -9.1022 m -4.5556,0 H 461.13 m -4.5511,0 h -9.1021 m -4.5511,0 h -9.1022 m -4.551,0 h -9.1022 m -4.5511,0 h -9.1021 m -4.5556,0 h -9.1022 m -4.55108,0 h -9.10216 m -4.54655,0 h -9.10216 m -4.55108,0 h -9.10216 m -4.54655,0 h -9.10216 m -4.55561,0 h -9.10216 m -4.55108,0 h -9.10216 m -4.55108,0 h -9.10216 m -4.55108,0 h -9.10216 m -4.55561,0 h -9.0931 m -4.55561,0 h -9.10216 m -4.55108,0 h -9.10216 m -4.55561,0 h -9.10216 m -4.55108,0 h -9.11121 m -4.55108,0 h -9.10216 m -4.55108,0 h -9.10216 m -4.55108,0 h -9.10216 m -4.55108,0 h -9.10216 m -4.55561,0 h -9.10216 m -4.55108,0 h -9.10216 m -4.55108,0 h -9.10216 m -4.55108,0 h -9.10216 m -4.55108,0 h -9.102156 m -4.55561,0 h -9.10216 m -4.55108,0 h -9.10216 m -4.54655,0 h -9.10216 m -4.55108,0 h -9.10216 m -4.54655,0 h -9.10216 m -4.55561,0 h -9.10216 m -4.5510802,0 h -4.55108 v -4.3 m 0,-4.3 v -8.6 m 0,-4.3 v -8.6 m 0,-4.3 v -8.5 m 0,-4.3 V 62 m 0,-4.3 v -8.6 m 0,-4.3 v -8.6 m 0,-4.3 v -8.6 m 0,-4.3 v -8.6 m 0,-4.2 V 1.9 h 4.55108" />
  <path
     style="fill:#ffffff;stroke:#000000;stroke-width:0.90568757"
     inkscape:connector-curvature="0"
     id="path6"
     d="m 82.511884,44.4 c 0,-2.7 2.22799,-5 4.98128,-5 H 543.5068 c 2.7533,0 4.9813,2.3 4.9813,5 v 30.4 c 0,2.7 -2.228,5 -4.9813,5 H 87.493164 c -2.75329,0 -4.98128,-2.3 -4.98128,-5 z" />
  <path
     style="fill:#ffffff;fill-opacity:0;stroke:#000000;stroke-width:0.90568757;stroke-opacity:0"
     inkscape:connector-curvature="0"
     id="path10"
     d="M 5.5284438,1.9 H 52.624194 V 32.2 H 5.5284438 Z" />
  <path
     style="fill:none;stroke-width:0.45284379"
     inkscape:connector-curvature="0"
     id="path14"
     d="M 169.87329,39.4 V 79.8" />
  <path
     style="fill:#ffffff;fill-opacity:0;stroke:#000000;stroke-width:0.90568757;stroke-opacity:0"
     inkscape:connector-curvature="0"
     id="path18"
     d="m 172.62779,87.4 h 14.94384 v 30.4 h -14.94384 z" />
  <text
     xml:space="preserve"
     style="font-style:normal;font-variant:normal;font-weight:normal;font-stretch:normal;font-size:14.49100113px;line-height:1.25;font-family:sans-serif;-inkscape-font-specification:'sans-serif, Normal';font-variant-ligatures:normal;font-variant-caps:normal;font-variant-numeric:normal;font-feature-settings:normal;text-align:start;letter-spacing:0px;word-spacing:0px;writing-mode:lr-tb;text-anchor:start;fill:#000000;fill-opacity:1;stroke:none;stroke-width:0.45284379"
     x="9.9593773"
     y="19.10981"
     id="text281"><tspan
       sodipodi:role="line"
       id="tspan279"
       x="9.9593773"
       y="19.10981"
       style="stroke-width:0.45284379">/acct</tspan></text>
  <text
     xml:space="preserve"
     style="font-style:normal;font-variant:normal;font-weight:normal;font-stretch:normal;font-size:14.49100113px;line-height:1.25;font-family:sans-serif;-inkscape-font-specification:'sans-serif, Normal';font-variant-ligatures:normal;font-variant-caps:normal;font-variant-numeric:normal;font-feature-settings:normal;text-align:start;letter-spacing:0px;word-spacing:0px;writing-mode:lr-tb;text-anchor:start;fill:#000000;fill-opacity:1;stroke:none;stroke-width:0.45284379"
     x="299.41342"
     y="64.584816"
     id="text281-9"><tspan
       sodipodi:role="line"
       id="tspan279-1"
       x="299.41342"
       y="64.584816"
       style="stroke-width:0.45284379">cont</tspan></text>
  <path
     style="fill:#800000;fill-opacity:1;stroke:#aa0000;stroke-width:0.90600002;stroke-linecap:butt;stroke-linejoin:miter;stroke-miterlimit:4;stroke-dasharray:7.24800014, 3.62400007;stroke-dashoffset:0;stroke-opacity:1"
     d="m 169.27742,39.4 c 0,39.730565 0.0442,39.597985 0.0442,39.597985 v 0 0 0"
     id="path4476-4"
     inkscape:connector-curvature="0" />
  <path
     style="fill:#aa0000;fill-opacity:1;stroke:#aa0000;stroke-width:0.90600002;stroke-linecap:butt;stroke-linejoin:miter;stroke-miterlimit:4;stroke-dasharray:7.24800014, 3.62400007;stroke-dashoffset:0;stroke-opacity:1"
     d="m 252.83355,39.4281 c 0,39.730565 0.0442,39.597985 0.0442,39.597985 v 0 0 0"
     id="path4476-6"
     inkscape:connector-curvature="0" />
  <text
     xml:space="preserve"
     style="font-style:normal;font-variant:normal;font-weight:normal;font-stretch:normal;font-size:14.49100113px;line-height:1.25;font-family:sans-serif;-inkscape-font-specification:'sans-serif, Normal';font-variant-ligatures:normal;font-variant-caps:normal;font-variant-numeric:normal;font-feature-settings:normal;text-align:start;letter-spacing:0px;word-spacing:0px;writing-mode:lr-tb;text-anchor:start;fill:#aa0000;fill-opacity:1;stroke:none;stroke-width:0.45284379"
     x="157.79762"
     y="110.58204"
     id="text281-0"><tspan
       sodipodi:role="line"
       id="tspan279-4"
       x="157.79762"
       y="110.58204"
       style="fill:#aa0000;stroke-width:0.45284379">cat</tspan></text>
  <text
     xml:space="preserve"
     style="font-style:normal;font-variant:normal;font-weight:normal;font-stretch:normal;font-size:14.49100113px;line-height:1.25;font-family:sans-serif;-inkscape-font-specification:'sans-serif, Normal';font-variant-ligatures:normal;font-variant-caps:normal;font-variant-numeric:normal;font-feature-settings:normal;text-align:start;letter-spacing:0px;word-spacing:0px;writing-mode:lr-tb;text-anchor:start;fill:#aa0000;fill-opacity:1;stroke:none;stroke-width:0.45284379"
     x="229.34985"
     y="109.59498"
     id="text281-0-2"><tspan
       sodipodi:role="line"
       id="tspan279-4-7"
       x="229.34985"
       y="109.59498"
       style="fill:#aa0000;stroke-width:0.45284379">giraffe</tspan></text>
</svg>
